# xmcd CD database file
#
# Track frame offsets:
#	150
#	22665
#	45921
#	78416
#	102317
#	130111
#	155681
#	180066
#	199080
#	229090
#	253775
#	284146
#	300709
#	308717
#
# Disc length: 4173 seconds
#
# Revision: 0
# Processed by: cddbd v1.5.2PL0 Copyright (c) Steve Scherf et al.
# Submitted via: CDex 1.51
#
DISCID=ac104b0e
DTITLE=Hypersax - Little Fishermen - Hypersax - Little Fishermen
DYEAR=1900
DGENRE=Jazz
TTITLE0=little fishermen
TTITLE1=N.Y.Penn Station
TTITLE2=thaya
TTITLE3=instrumental journey
TTITLE4=chinatown
TTITLE5=so high
TTITLE6=first snow
TTITLE7=boogie
TTITLE8=walking her home
TTITLE9=octobersong
TTITLE10=big trees
TTITLE11=wolfstanz
TTITLE12=moving out(bonus)
TTITLE13=2 kids in a bathtub(bonus)
EXTD=
EXTT0=
EXTT1=
EXTT2=
EXTT3=
EXTT4=
EXTT5=
EXTT6=
EXTT7=
EXTT8=
EXTT9=
EXTT10=
EXTT11=
EXTT12=
EXTT13=
PLAYORDER=
